<?xml version="1.0" encoding="UTF-8"?>
<!DOCTYPE svg PUBLIC "-//W3C//DTD SVG 1.1//EN" "http://www.w3.org/Graphics/SVG/1.1/DTD/svg11.dtd">
<svg xmlns="http://www.w3.org/2000/svg" version="1.1" width="645px" height="250px" style="shape-rendering:geometricPrecision; text-rendering:geometricPrecision; image-rendering:optimizeQuality; fill-rule:evenodd; clip-rule:evenodd" xmlns:xlink="http://www.w3.org/1999/xlink">
<g><path style="opacity:1" fill="#8e90c3" d="M -0.5,-0.5 C 39.1667,-0.5 78.8333,-0.5 118.5,-0.5C 123.439,7.866 128.773,16.0327 134.5,24C 130.5,24.6667 126.5,24.6667 122.5,24C 117.964,20.7658 112.964,18.5991 107.5,17.5C 103.35,17.9837 101.35,20.317 101.5,24.5C 96.8333,24.5 92.1667,24.5 87.5,24.5C 86.9949,18.7888 86.1616,13.1222 85,7.5C 80.8372,3.25254 77.1705,3.58588 74,8.5C 74.0957,13.8086 74.2623,19.142 74.5,24.5C 56.8333,24.5 39.1667,24.5 21.5,24.5C 21.5,80.8333 21.5,137.167 21.5,193.5C 21.5,202.833 21.5,212.167 21.5,221.5C 14.1667,221.5 6.83333,221.5 -0.5,221.5C -0.5,147.5 -0.5,73.5 -0.5,-0.5 Z"/></g>
<g><path style="opacity:1" fill="#8e90c3" d="M 125.5,-0.5 C 288.833,-0.5 452.167,-0.5 615.5,-0.5C 615.5,7.83333 615.5,16.1667 615.5,24.5C 568.499,24.6667 521.499,24.5 474.5,24C 473.028,21.004 470.862,20.1706 468,21.5C 467.517,22.448 467.351,23.448 467.5,24.5C 358.5,24.5 249.5,24.5 140.5,24.5C 140.657,23.1266 140.49,21.7932 140,20.5C 135.157,13.4711 130.323,6.47108 125.5,-0.5 Z"/></g>
<g><path style="opacity:1" fill="#fefefe" d="M 615.5,-0.5 C 625.167,-0.5 634.833,-0.5 644.5,-0.5C 644.5,82.8333 644.5,166.167 644.5,249.5C 644.167,249.5 643.833,249.5 643.5,249.5C 643.5,174.833 643.5,100.167 643.5,25.5C 634.167,25.5 624.833,25.5 615.5,25.5C 615.5,25.1667 615.5,24.8333 615.5,24.5C 615.5,16.1667 615.5,7.83333 615.5,-0.5 Z"/></g>
<g><path style="opacity:1" fill="#8688bf" d="M 118.5,-0.5 C 120.833,-0.5 123.167,-0.5 125.5,-0.5C 130.323,6.47108 135.157,13.4711 140,20.5C 140.49,21.7932 140.657,23.1266 140.5,24.5C 249.5,24.5 358.5,24.5 467.5,24.5C 467.351,23.448 467.517,22.448 468,21.5C 470.862,20.1706 473.028,21.004 474.5,24C 521.499,24.5 568.499,24.6667 615.5,24.5C 615.5,24.8333 615.5,25.1667 615.5,25.5C 417.833,25.5 220.167,25.5 22.5,25.5C 22.5,81.5 22.5,137.5 22.5,193.5C 22.1667,193.5 21.8333,193.5 21.5,193.5C 21.5,137.167 21.5,80.8333 21.5,24.5C 39.1667,24.5 56.8333,24.5 74.5,24.5C 74.2623,19.142 74.0957,13.8086 74,8.5C 77.1705,3.58588 80.8372,3.25254 85,7.5C 86.1616,13.1222 86.9949,18.7888 87.5,24.5C 92.1667,24.5 96.8333,24.5 101.5,24.5C 101.35,20.317 103.35,17.9837 107.5,17.5C 112.964,18.5991 117.964,20.7658 122.5,24C 126.5,24.6667 130.5,24.6667 134.5,24C 128.773,16.0327 123.439,7.866 118.5,-0.5 Z"/></g>
<g><path style="opacity:1" fill="#21248a" d="M 615.5,25.5 C 615.5,90.8333 615.5,156.167 615.5,221.5C 417.833,221.5 220.167,221.5 22.5,221.5C 22.5,212.167 22.5,202.833 22.5,193.5C 22.5,137.5 22.5,81.5 22.5,25.5C 220.167,25.5 417.833,25.5 615.5,25.5 Z"/></g>
<g><path style="opacity:1" fill="#f7f7f9" d="M 399.5,53.5 C 406.909,52.6209 413.909,53.7875 420.5,57C 426.444,67.8337 423.444,74.8337 411.5,78C 405.958,78.9128 400.625,78.2461 395.5,76C 389.291,69.6528 388.958,62.9861 394.5,56C 396.315,55.2432 397.981,54.4098 399.5,53.5 Z"/></g>
<g><path style="opacity:1" fill="#fafafc" d="M 154.5,56.5 C 159.628,56.1115 164.628,56.6115 169.5,58C 170.333,58.8333 171.167,59.6667 172,60.5C 172.667,63.8333 172.667,67.1667 172,70.5C 170.786,72.0488 169.286,73.2155 167.5,74C 162.382,74.888 157.382,74.5547 152.5,73C 146.799,66.7109 147.465,61.2109 154.5,56.5 Z"/></g>
<g><path style="opacity:1" fill="#fbfbfd" d="M 377.5,107.5 C 369.5,107.5 361.5,107.5 353.5,107.5C 353.768,105.901 353.434,104.568 352.5,103.5C 351.788,96.8574 351.454,90.1908 351.5,83.5C 323.193,80.6412 310.359,93.3079 313,121.5C 315.167,134.333 322.667,141.833 335.5,144C 349.141,145.964 361.641,143.13 373,135.5C 375.121,140.973 376.787,146.64 378,152.5C 378.798,154.259 378.631,155.926 377.5,157.5C 374.071,159.881 370.404,161.715 366.5,163C 350.548,168.133 334.548,168.466 318.5,164C 295.829,154.527 284.829,137.361 285.5,112.5C 286.501,85.3102 300.167,68.4768 326.5,62C 343.475,60.4111 360.142,61.9111 376.5,66.5C 377.499,80.1504 377.833,93.8171 377.5,107.5 Z"/></g>
<g><path style="opacity:1" fill="#fdfdfe" d="M 50.5,62.5 C 78.5,62.5 106.5,62.5 134.5,62.5C 134.5,73.1667 134.5,83.8333 134.5,94.5C 130.5,94.5 126.5,94.5 122.5,94.5C 122.388,87.8198 122.054,81.1531 121.5,74.5C 106.5,74.5 91.5,74.5 76.5,74.5C 76.5,85.8333 76.5,97.1667 76.5,108.5C 87.8333,108.5 99.1667,108.5 110.5,108.5C 110.5,112.167 110.5,115.833 110.5,119.5C 98.9877,119.172 87.6544,119.505 76.5,120.5C 76.5,131.5 76.5,142.5 76.5,153.5C 80.5,153.5 84.5,153.5 88.5,153.5C 88.5,157.5 88.5,161.5 88.5,165.5C 75.8333,165.5 63.1667,165.5 50.5,165.5C 50.5,161.5 50.5,157.5 50.5,153.5C 54.1667,153.5 57.8333,153.5 61.5,153.5C 61.5,127.5 61.5,101.5 61.5,75.5C 58.0381,74.5184 54.3714,74.185 50.5,74.5C 50.5,70.5 50.5,66.5 50.5,62.5 Z"/></g>
<g><path style="opacity:1" fill="#6263ab" d="M 465.5,63.5 C 465.167,63.5 464.833,63.5 464.5,63.5C 456.5,63.5 448.5,63.5 440.5,63.5C 440.5,71.1667 440.5,78.8333 440.5,86.5C 436.5,86.5 432.5,86.5 428.5,86.5C 431.962,85.5184 435.629,85.185 439.5,85.5C 439.5,77.8333 439.5,70.1667 439.5,62.5C 448.349,62.1736 457.016,62.507 465.5,63.5 Z"/></g>
<g><path style="opacity:1" fill="#fdfdfd" d="M 464.5,63.5 C 464.5,71.1667 464.5,78.8333 464.5,86.5C 471.5,86.5 478.5,86.5 485.5,86.5C 485.5,92.1667 485.5,97.8333 485.5,103.5C 478.5,103.5 471.5,103.5 464.5,103.5C 464.172,114.014 464.506,124.347 465.5,134.5C 465.38,142.22 469.047,145.387 476.5,144C 479.432,142.855 482.432,142.022 485.5,141.5C 485.878,147.691 486.545,153.858 487.5,160C 487.167,161.167 486.833,162.333 486.5,163.5C 456.931,174.059 441.598,163.725 440.5,132.5C 440.5,122.833 440.5,113.167 440.5,103.5C 436.5,103.5 432.5,103.5 428.5,103.5C 428.5,97.8333 428.5,92.1667 428.5,86.5C 432.5,86.5 436.5,86.5 440.5,86.5C 440.5,78.8333 440.5,71.1667 440.5,63.5C 448.5,63.5 456.5,63.5 464.5,63.5 Z"/></g>
<g><path style="opacity:1" fill="#8f91c4" d="M 464.5,63.5 C 464.833,63.5 465.167,63.5 465.5,63.5C 465.5,70.8333 465.5,78.1667 465.5,85.5C 472.354,85.176 479.021,85.5093 485.5,86.5C 478.5,86.5 471.5,86.5 464.5,86.5C 464.5,78.8333 464.5,71.1667 464.5,63.5 Z"/></g>
<g><path style="opacity:1" fill="#8f90c3" d="M 50.5,62.5 C 50.5,66.5 50.5,70.5 50.5,74.5C 54.3714,74.185 58.0381,74.5184 61.5,75.5C 57.5,75.5 53.5,75.5 49.5,75.5C 49.1818,70.9677 49.5151,66.6344 50.5,62.5 Z"/></g>
<g><path style="opacity:1" fill="#8e8fc2" d="M 420.5,147.5 C 419.503,127.34 419.17,107.007 419.5,86.5C 408.5,86.5 397.5,86.5 386.5,86.5C 386.5,92.1667 386.5,97.8333 386.5,103.5C 389.713,103.19 392.713,103.523 395.5,104.5C 392.167,104.5 388.833,104.5 385.5,104.5C 385.5,98.1667 385.5,91.8333 385.5,85.5C 397.167,85.5 408.833,85.5 420.5,85.5C 420.5,106.167 420.5,126.833 420.5,147.5 Z"/></g>
<g><path style="opacity:1" fill="#9091c4" d="M 587.5,86.5 C 573.5,86.5 559.5,86.5 545.5,86.5C 545.5,92.1667 545.5,97.8333 545.5,103.5C 547.924,103.192 550.257,103.526 552.5,104.5C 552.376,105.107 552.043,105.44 551.5,105.5C 549.393,104.532 547.059,104.198 544.5,104.5C 544.5,98.1667 544.5,91.8333 544.5,85.5C 559.01,85.1707 573.343,85.5041 587.5,86.5 Z"/></g>
<g><path style="opacity:1" fill="#fdfdfd" d="M 420.5,147.5 C 423.5,147.5 426.5,147.5 429.5,147.5C 429.5,153.5 429.5,159.5 429.5,165.5C 415.167,165.5 400.833,165.5 386.5,165.5C 386.5,159.5 386.5,153.5 386.5,147.5C 389.5,147.5 392.5,147.5 395.5,147.5C 395.5,133.167 395.5,118.833 395.5,104.5C 392.713,103.523 389.713,103.19 386.5,103.5C 386.5,97.8333 386.5,92.1667 386.5,86.5C 397.5,86.5 408.5,86.5 419.5,86.5C 419.17,107.007 419.503,127.34 420.5,147.5 Z"/></g>
<g><path style="opacity:1" fill="#a8a8d1" d="M 533.5,86.5 C 519.5,86.5 505.5,86.5 491.5,86.5C 491.5,92.1667 491.5,97.8333 491.5,103.5C 495.371,103.185 499.038,103.518 502.5,104.5C 498.5,104.5 494.5,104.5 490.5,104.5C 490.5,98.1667 490.5,91.8333 490.5,85.5C 505.01,85.1707 519.343,85.5041 533.5,86.5 Z"/></g>
<g><path style="opacity:1" fill="#fcfcfd" d="M 533.5,86.5 C 533.5,92.1667 533.5,97.8333 533.5,103.5C 531.167,103.5 528.833,103.5 526.5,103.5C 526.263,104.791 526.596,105.791 527.5,106.5C 531.417,118.42 535.25,130.42 539,142.5C 543.455,130.303 547.621,117.969 551.5,105.5C 552.043,105.44 552.376,105.107 552.5,104.5C 550.257,103.526 547.924,103.192 545.5,103.5C 545.5,97.8333 545.5,92.1667 545.5,86.5C 559.5,86.5 573.5,86.5 587.5,86.5C 587.5,92.5 587.5,98.5 587.5,104.5C 583.5,104.5 579.5,104.5 575.5,104.5C 568.304,126.92 560.804,149.254 553,171.5C 546.471,190.519 533.305,197.686 513.5,193C 510.883,192.178 508.216,191.678 505.5,191.5C 506,184.667 507.333,178 509.5,171.5C 514.523,174.236 519.856,175.07 525.5,174C 534.756,167.396 534.089,164.562 523.5,165.5C 516.701,145.104 509.701,124.77 502.5,104.5C 499.038,103.518 495.371,103.185 491.5,103.5C 491.5,97.8333 491.5,92.1667 491.5,86.5C 505.5,86.5 519.5,86.5 533.5,86.5 Z"/></g>
<g><path style="opacity:1" fill="#8184bd" d="M 168.5,87.5 C 169.497,109.66 169.831,131.994 169.5,154.5C 173.5,154.5 177.5,154.5 181.5,154.5C 181.5,158.5 181.5,162.5 181.5,166.5C 168.323,166.829 155.323,166.495 142.5,165.5C 142.833,165.5 143.167,165.5 143.5,165.5C 155.833,165.5 168.167,165.5 180.5,165.5C 180.5,162.167 180.5,158.833 180.5,155.5C 176.5,155.5 172.5,155.5 168.5,155.5C 168.5,132.833 168.5,110.167 168.5,87.5 Z"/></g>
<g><path style="opacity:1" fill="#fefefe" d="M 168.5,87.5 C 168.5,110.167 168.5,132.833 168.5,155.5C 172.5,155.5 176.5,155.5 180.5,155.5C 180.5,158.833 180.5,162.167 180.5,165.5C 168.167,165.5 155.833,165.5 143.5,165.5C 143.5,162.167 143.5,158.833 143.5,155.5C 147.5,155.5 151.5,155.5 155.5,155.5C 155.83,136.326 155.497,117.326 154.5,98.5C 150.5,98.5 146.5,98.5 142.5,98.5C 142.5,94.8333 142.5,91.1667 142.5,87.5C 151.167,87.5 159.833,87.5 168.5,87.5 Z"/></g>
<g><path style="opacity:1" fill="#fbfbfd" d="M 277.5,165.5 C 265.5,165.5 253.5,165.5 241.5,165.5C 241.5,162.167 241.5,158.833 241.5,155.5C 244.972,155.84 247.639,155.507 249.5,154.5C 244.247,147.68 238.747,141.013 233,134.5C 226.91,140.749 221.41,147.416 216.5,154.5C 218.361,155.507 221.028,155.84 224.5,155.5C 224.5,158.833 224.5,162.167 224.5,165.5C 212.5,165.5 200.5,165.5 188.5,165.5C 188.5,162.167 188.5,158.833 188.5,155.5C 192.182,155.665 195.848,155.499 199.5,155C 207.5,145.667 215.5,136.333 223.5,127C 215.5,117.667 207.5,108.333 199.5,99C 195.848,98.5014 192.182,98.3347 188.5,98.5C 188.5,94.8333 188.5,91.1667 188.5,87.5C 200.5,87.5 212.5,87.5 224.5,87.5C 224.5,91.1667 224.5,94.8333 224.5,98.5C 221.753,98.1866 219.086,98.52 216.5,99.5C 222.189,106.021 227.689,112.688 233,119.5C 238.311,112.688 243.811,106.021 249.5,99.5C 246.914,98.52 244.247,98.1866 241.5,98.5C 241.5,94.8333 241.5,91.1667 241.5,87.5C 253.5,87.5 265.5,87.5 277.5,87.5C 277.5,91.1667 277.5,94.8333 277.5,98.5C 273.818,98.3347 270.152,98.5014 266.5,99C 258.5,108.333 250.5,117.667 242.5,127C 250.5,136.333 258.5,145.667 266.5,155C 270.152,155.499 273.818,155.665 277.5,155.5C 277.5,158.833 277.5,162.167 277.5,165.5 Z"/></g>
<g><path style="opacity:1" fill="#c1c2de" d="M 154.5,98.5 C 155.497,117.326 155.83,136.326 155.5,155.5C 151.5,155.5 147.5,155.5 143.5,155.5C 143.5,158.833 143.5,162.167 143.5,165.5C 143.167,165.5 142.833,165.5 142.5,165.5C 142.5,161.833 142.5,158.167 142.5,154.5C 146.5,154.5 150.5,154.5 154.5,154.5C 154.5,135.833 154.5,117.167 154.5,98.5 Z"/></g>
<g><path style="opacity:1" fill="#9192c4" d="M 485.5,103.5 C 479.021,104.491 472.354,104.824 465.5,104.5C 465.5,114.5 465.5,124.5 465.5,134.5C 464.506,124.347 464.172,114.014 464.5,103.5C 471.5,103.5 478.5,103.5 485.5,103.5 Z"/></g>
<g><path style="opacity:1" fill="#8f90c3" d="M 533.5,103.5 C 531.156,103.94 529.156,104.94 527.5,106.5C 526.596,105.791 526.263,104.791 526.5,103.5C 528.833,103.5 531.167,103.5 533.5,103.5 Z"/></g>
<g><path style="opacity:1" fill="#6666ad" d="M 428.5,103.5 C 432.5,103.5 436.5,103.5 440.5,103.5C 440.5,113.167 440.5,122.833 440.5,132.5C 439.506,123.348 439.173,114.015 439.5,104.5C 435.629,104.815 431.962,104.482 428.5,103.5 Z"/></g>
<g><path style="opacity:1" fill="#9394c5" d="M 352.5,103.5 C 353.434,104.568 353.768,105.901 353.5,107.5C 361.5,107.5 369.5,107.5 377.5,107.5C 369.35,108.493 361.017,108.826 352.5,108.5C 352.5,106.833 352.5,105.167 352.5,103.5 Z"/></g>
<g><path style="opacity:1" fill="#b8b9d9" d="M 110.5,108.5 C 111.483,112.298 111.817,116.298 111.5,120.5C 99.8333,120.5 88.1667,120.5 76.5,120.5C 87.6544,119.505 98.9877,119.172 110.5,119.5C 110.5,115.833 110.5,112.167 110.5,108.5 Z"/></g>
<g><path style="opacity:1" fill="#8184bd" d="M 216.5,154.5 C 219.5,154.5 222.5,154.5 225.5,154.5C 225.5,158.5 225.5,162.5 225.5,166.5C 212.989,166.829 200.655,166.495 188.5,165.5C 200.5,165.5 212.5,165.5 224.5,165.5C 224.5,162.167 224.5,158.833 224.5,155.5C 221.028,155.84 218.361,155.507 216.5,154.5 Z"/></g>
<g><path style="opacity:1" fill="#8184bd" d="M 249.5,154.5 C 247.639,155.507 244.972,155.84 241.5,155.5C 241.5,158.833 241.5,162.167 241.5,165.5C 253.5,165.5 265.5,165.5 277.5,165.5C 265.345,166.495 253.011,166.829 240.5,166.5C 240.5,162.5 240.5,158.5 240.5,154.5C 243.5,154.5 246.5,154.5 249.5,154.5 Z"/></g>
<g><path style="opacity:1" fill="#898bc0" d="M 50.5,153.5 C 50.5,157.5 50.5,161.5 50.5,165.5C 63.1667,165.5 75.8333,165.5 88.5,165.5C 75.6774,166.495 62.6774,166.829 49.5,166.5C 49.1818,161.968 49.5151,157.634 50.5,153.5 Z"/></g>
<g><path style="opacity:1" fill="#6566ad" d="M 386.5,147.5 C 386.5,153.5 386.5,159.5 386.5,165.5C 400.833,165.5 415.167,165.5 429.5,165.5C 415.01,166.496 400.343,166.829 385.5,166.5C 385.177,159.978 385.51,153.645 386.5,147.5 Z"/></g>
<g><path style="opacity:1" fill="#6567ae" d="M 21.5,193.5 C 21.8333,193.5 22.1667,193.5 22.5,193.5C 22.5,202.833 22.5,212.167 22.5,221.5C 220.167,221.5 417.833,221.5 615.5,221.5C 418.001,222.5 220.334,222.833 22.5,222.5C 21.8333,222.5 21.5,222.167 21.5,221.5C 21.5,212.167 21.5,202.833 21.5,193.5 Z"/></g>
<g><path style="opacity:1" fill="#fafafc" d="M -0.5,221.5 C 6.83333,221.5 14.1667,221.5 21.5,221.5C 21.5,222.167 21.8333,222.5 22.5,222.5C 22.5,231.5 22.5,240.5 22.5,249.5C 14.8333,249.5 7.16667,249.5 -0.5,249.5C -0.5,240.167 -0.5,230.833 -0.5,221.5 Z"/></g>
<g><path style="opacity:1" fill="#8e90c3" d="M 615.5,25.5 C 624.833,25.5 634.167,25.5 643.5,25.5C 643.5,100.167 643.5,174.833 643.5,249.5C 436.5,249.5 229.5,249.5 22.5,249.5C 22.5,240.5 22.5,231.5 22.5,222.5C 220.334,222.833 418.001,222.5 615.5,221.5C 615.5,156.167 615.5,90.8333 615.5,25.5 Z"/></g>
</svg>
